<svg width="24" height="24" viewBox="0 0 24 24" fill="none" xmlns="http://www.w3.org/2000/svg">
<path d="M9.71019 9.7158L12.0002 7.4158L14.2902 9.7158C14.3831 9.80953 14.4937 9.88392 14.6156 9.93469C14.7375 9.98546 14.8682 10.0116 15.0002 10.0116C15.1322 10.0116 15.2629 9.98546 15.3848 9.93469C15.5066 9.88392 15.6172 9.80953 15.7102 9.7158C15.8039 9.62284 15.8783 9.51223 15.9291 9.39038C15.9798 9.26852 16.006 9.13781 16.006 9.0058C16.006 8.87379 15.9798 8.74308 15.9291 8.62122C15.8783 8.49936 15.8039 8.38876 15.7102 8.2958L12.7102 5.2958C12.6172 5.20207 12.5066 5.12768 12.3848 5.07691C12.2629 5.02614 12.1322 5 12.0002 5C11.8682 5 11.7375 5.02614 11.6156 5.07691C11.4937 5.12768 11.3831 5.20207 11.2902 5.2958L8.29019 8.2958C8.10188 8.4841 7.99609 8.7395 7.99609 9.0058C7.99609 9.2721 8.10188 9.52749 8.29019 9.7158C8.47849 9.9041 8.73388 10.0099 9.00019 10.0099C9.26649 10.0099 9.52188 9.9041 9.71019 9.7158Z" fill="white"/>
<path d="M11.603 18.9856C11.4811 18.9348 11.3705 18.8604 11.2775 18.7667L8.27753 15.7267C8.1838 15.6337 8.10941 15.5231 8.05864 15.4013C8.00787 15.2794 7.98173 15.1487 7.98173 15.0167C7.98173 14.8847 8.00787 14.754 8.05864 14.6321C8.10941 14.5103 8.1838 14.3997 8.27753 14.3067C8.37049 14.213 8.48109 14.1386 8.60295 14.0878C8.72481 14.037 8.85552 14.0109 8.98753 14.0109C9.11954 14.0109 9.25025 14.037 9.3721 14.0878C9.49396 14.1386 9.60456 14.213 9.69753 14.3067L11.9875 16.6467L14.2775 14.3067C14.4711 14.1184 14.7316 14.0147 15.0017 14.0185C15.2717 14.0222 15.5292 14.1331 15.7175 14.3267C15.9058 14.5203 16.0095 14.7808 16.0058 15.0508C16.002 15.3209 15.8911 15.5784 15.6975 15.7667L12.6975 18.7667C12.6046 18.8604 12.494 18.9348 12.3721 18.9856C12.2502 19.0364 12.1195 19.0625 11.9875 19.0625C11.8555 19.0625 11.7248 19.0364 11.603 18.9856Z" fill="white"/>
</svg>
