<svg width="24" height="24" viewBox="0 0 24 24" fill="none" xmlns="http://www.w3.org/2000/svg">
<path d="M13.809 5.36164L8.37883 11.0721C8.25879 11.1959 8.16351 11.3431 8.09849 11.5053C8.03348 11.6675 8 11.8415 8 12.0172C8 12.1929 8.03348 12.3669 8.09849 12.5291C8.16351 12.6914 8.25879 12.8386 8.37883 12.9623L13.809 18.6063C13.928 18.731 14.0697 18.83 14.2258 18.8976C14.3818 18.9652 14.5492 19 14.7183 19C14.8874 19 15.0547 18.9652 15.2108 18.8976C15.3669 18.83 15.5085 18.731 15.6276 18.6063C15.8661 18.3569 16 18.0195 16 17.6678C16 17.3162 15.8661 16.9788 15.6276 16.7294L11.0939 12.0172L15.6276 7.30507C15.8642 7.05713 15.9976 6.72249 15.999 6.37329C16 6.1981 15.9677 6.02444 15.9039 5.86226C15.8402 5.70008 15.7463 5.55257 15.6276 5.42819C15.5128 5.29897 15.3745 5.19467 15.2208 5.12132C15.067 5.04797 14.9007 5.00701 14.7316 5.00082C14.5625 4.99463 14.3939 5.02334 14.2356 5.08527C14.0772 5.14719 13.9322 5.24113 13.809 5.36164Z" fill="#FF7506"/>
</svg>
