<svg width="32" height="32" viewBox="0 0 32 32" fill="none" xmlns="http://www.w3.org/2000/svg">
<path fill-rule="evenodd" clip-rule="evenodd" d="M10.0785 5.241C11.6452 3.59619 13.7748 2.66797 16 2.66797C18.2252 2.66797 20.3548 3.59619 21.9215 5.241C23.4876 6.88505 24.3636 9.11022 24.3636 11.4259C24.3636 15.7179 25.2383 18.3953 26.0528 19.9631C26.4615 20.7495 26.8605 21.2677 27.1402 21.5775C27.2803 21.7328 27.3911 21.8366 27.4593 21.8962C27.4934 21.9261 27.5168 21.9449 27.5279 21.9535C27.5306 21.9556 27.5326 21.9571 27.5338 21.9581C27.9218 22.237 28.0912 22.7422 27.9516 23.2088C27.8108 23.6799 27.3879 24.0013 26.909 24.0013H5.09098C4.61211 24.0013 4.18922 23.6799 4.04835 23.2088C3.90883 22.7422 4.07825 22.237 4.4662 21.9581C4.46742 21.9571 4.46939 21.9556 4.4721 21.9535C4.48319 21.9449 4.50662 21.9261 4.54071 21.8962C4.60886 21.8366 4.71974 21.7328 4.85984 21.5775C5.13948 21.2677 5.53854 20.7495 5.94716 19.9631C6.7617 18.3953 7.63642 15.7179 7.63642 11.4259C7.63642 9.11022 8.51244 6.88505 10.0785 5.241ZM7.45656 21.7557H24.5434C24.4062 21.5323 24.2671 21.2882 24.1289 21.022C23.1252 19.0903 22.1818 16.0415 22.1818 11.4259C22.1818 9.6916 21.5253 8.03274 20.3636 6.81309C19.2025 5.59418 17.6325 4.91358 16 4.91358C14.3675 4.91358 12.7975 5.59418 11.6364 6.81309C10.4747 8.03274 9.81822 9.6916 9.81822 11.4259C9.81822 16.0415 8.87478 19.0903 7.87114 21.022C7.73285 21.2882 7.59384 21.5323 7.45656 21.7557Z" fill="white" stroke="white" stroke-width="0.25" stroke-linecap="round" stroke-linejoin="round"/>
<path fill-rule="evenodd" clip-rule="evenodd" d="M9.90422 24.1349C10.4403 23.8483 11.1169 24.0332 11.4155 24.5479C11.8875 25.3615 12.5617 26.0315 13.3663 26.4949C14.1705 26.9581 15.0786 27.2001 16.0002 27.2001C16.9217 27.2001 17.8298 26.9581 18.634 26.4949C19.4386 26.0315 20.1129 25.3615 20.5848 24.5479C20.8834 24.0332 21.56 23.8483 22.0961 24.1349C22.6322 24.4215 22.8248 25.0711 22.5263 25.5858C21.8691 26.7187 20.9227 27.6644 19.7773 28.3242C18.6316 28.9841 17.3289 29.3333 16.0002 29.3333C14.6714 29.3333 13.3687 28.9841 12.223 28.3242C11.0777 27.6644 10.1312 26.7187 9.47406 25.5858C9.17552 25.0711 9.3681 24.4215 9.90422 24.1349Z" fill="white"/>
</svg>
