<svg width="32" height="32" viewBox="0 0 32 32" fill="none" xmlns="http://www.w3.org/2000/svg">
<path d="M28.2103 2.91848C27.2558 2.7557 26.2893 2.6719 25.3208 2.66797C22.0163 2.66529 18.7808 3.60353 15.9998 5.37085C13.2117 3.62673 9.9767 2.71152 6.67887 2.7339C5.71035 2.73783 4.74384 2.82162 3.78937 2.98441C3.47673 3.03778 3.1936 3.19992 2.99098 3.44165C2.78836 3.68337 2.67956 3.98878 2.68417 4.30288V20.1246C2.68132 20.3183 2.72162 20.5103 2.80221 20.6868C2.88281 20.8634 3.0017 21.0202 3.15045 21.1461C3.2992 21.272 3.47413 21.3638 3.66281 21.4152C3.8515 21.4665 4.04928 21.476 4.2421 21.4431C6.15026 21.1159 8.10525 21.1702 9.9919 21.6027C11.8785 22.0352 13.6587 22.8372 15.2275 23.9613L15.3873 24.0536H15.5338C15.6815 24.1146 15.8399 24.1459 15.9998 24.1459C16.1598 24.1459 16.3182 24.1146 16.4659 24.0536H16.6124L16.7721 23.9613C18.33 22.812 20.1051 21.9841 21.9921 21.5266C23.8791 21.0691 25.8397 20.9914 27.7576 21.298C27.9504 21.331 28.1482 21.3215 28.3369 21.2701C28.5255 21.2188 28.7005 21.1269 28.8492 21.001C28.998 20.8752 29.1169 20.7184 29.1975 20.5418C29.278 20.3652 29.3184 20.1733 29.3155 19.9796V4.15785C29.3016 3.85744 29.1845 3.57075 28.9835 3.34532C28.7825 3.1199 28.5096 2.96929 28.2103 2.91848ZM14.6683 20.441C12.2047 19.1577 9.46253 18.488 6.67887 18.4897C6.23945 18.4897 5.80004 18.4897 5.3473 18.4897V5.30492C5.79079 5.27962 6.23538 5.27962 6.67887 5.30492C9.51962 5.30182 12.2984 6.12725 14.6683 7.67818V20.441ZM26.6524 18.5424C26.1996 18.5424 25.7602 18.5424 25.3208 18.5424C22.5371 18.5407 19.795 19.2105 17.3314 20.4938V7.67818C19.7013 6.12725 22.4801 5.30182 25.3208 5.30492C25.7643 5.27962 26.2089 5.27962 26.6524 5.30492V18.5424ZM28.2103 24.0141C27.2558 23.8513 26.2893 23.7675 25.3208 23.7636C22.0163 23.7609 18.7808 24.6991 15.9998 26.4664C13.2189 24.6991 9.98333 23.7609 6.67887 23.7636C5.71035 23.7675 4.74384 23.8513 3.78937 24.0141C3.61604 24.0413 3.44985 24.1022 3.30037 24.1933C3.15089 24.2843 3.02106 24.4037 2.91835 24.5447C2.81564 24.6856 2.74208 24.8452 2.70189 25.0143C2.6617 25.1835 2.65568 25.3589 2.68417 25.5303C2.75184 25.8727 2.9538 26.1746 3.24581 26.3698C3.53783 26.5651 3.89608 26.6377 4.2421 26.5719C6.15026 26.2448 8.10525 26.2991 9.9919 26.7316C11.8785 27.1641 13.6587 27.966 15.2275 29.0902C15.453 29.2492 15.723 29.3346 15.9998 29.3346C16.2767 29.3346 16.5466 29.2492 16.7721 29.0902C18.341 27.966 20.1211 27.1641 22.0078 26.7316C23.8944 26.2991 25.8494 26.2448 27.7576 26.5719C28.1036 26.6377 28.4618 26.5651 28.7539 26.3698C29.0459 26.1746 29.2478 25.8727 29.3155 25.5303C29.344 25.3589 29.338 25.1835 29.2978 25.0143C29.2576 24.8452 29.184 24.6856 29.0813 24.5447C28.9786 24.4037 28.8488 24.2843 28.6993 24.1933C28.5498 24.1022 28.3836 24.0413 28.2103 24.0141Z" fill="white"/>
</svg>
