<svg width="46" height="46" viewBox="0 0 46 46" fill="none" xmlns="http://www.w3.org/2000/svg">
<path d="M16.0473 10.3376C15.5901 10.8145 15.3335 11.4597 15.3335 12.1321C15.3335 12.8046 15.5901 13.4498 16.0473 13.9267L24.7368 23.0649L16.0473 32.0759C15.5901 32.5528 15.3335 33.198 15.3335 33.8705C15.3335 34.5429 15.5901 35.1881 16.0473 35.665C16.2755 35.9036 16.547 36.093 16.8461 36.2222C17.1452 36.3514 17.4661 36.418 17.7901 36.418C18.1142 36.418 18.435 36.3514 18.7341 36.2222C19.0332 36.093 19.3047 35.9036 19.5329 35.665L29.9407 24.8722C30.1708 24.6356 30.3534 24.3541 30.478 24.0439C30.6027 23.7337 30.6668 23.401 30.6668 23.0649C30.6668 22.7289 30.6027 22.3962 30.478 22.086C30.3534 21.7758 30.1708 21.4943 29.9407 21.2577L19.5329 10.3376C19.3047 10.099 19.0332 9.90963 18.7341 9.7804C18.435 9.65117 18.1142 9.58463 17.7901 9.58463C17.4661 9.58463 17.1452 9.65117 16.8461 9.7804C16.547 9.90963 16.2755 10.099 16.0473 10.3376Z" fill="#FF7506"/>
</svg>
