<svg width="32" height="32" viewBox="0 0 32 32" fill="none" xmlns="http://www.w3.org/2000/svg">
<path fill-rule="evenodd" clip-rule="evenodd" d="M3.99984 18.666C4.73622 18.666 5.33317 19.263 5.33317 19.9993V25.3327C5.33317 25.6863 5.47365 26.0254 5.72369 26.2755C5.97374 26.5255 6.31288 26.666 6.6665 26.666H25.3332C25.6868 26.666 26.0259 26.5255 26.276 26.2755C26.526 26.0254 26.6665 25.6863 26.6665 25.3327V19.9993C26.6665 19.263 27.2635 18.666 27.9998 18.666C28.7362 18.666 29.3332 19.263 29.3332 19.9993V25.3327C29.3332 26.3935 28.9117 27.411 28.1616 28.1611C27.4115 28.9113 26.394 29.3327 25.3332 29.3327H6.6665C5.60564 29.3327 4.58822 28.9113 3.83808 28.1611C3.08793 27.411 2.6665 26.3935 2.6665 25.3327V19.9993C2.6665 19.263 3.26346 18.666 3.99984 18.666Z" fill="#FF7506"/>
<path fill-rule="evenodd" clip-rule="evenodd" d="M8.39052 12.3905C8.91122 11.8698 9.75544 11.8698 10.2761 12.3905L16 18.1144L21.7239 12.3905C22.2446 11.8698 23.0888 11.8698 23.6095 12.3905C24.1302 12.9112 24.1302 13.7554 23.6095 14.2761L16.9428 20.9428C16.4221 21.4635 15.5779 21.4635 15.0572 20.9428L8.39052 14.2761C7.86983 13.7554 7.86983 12.9112 8.39052 12.3905Z" fill="#FF7506"/>
<path fill-rule="evenodd" clip-rule="evenodd" d="M15.9998 2.66602C16.7362 2.66602 17.3332 3.26297 17.3332 3.99935V19.9993C17.3332 20.7357 16.7362 21.3327 15.9998 21.3327C15.2635 21.3327 14.6665 20.7357 14.6665 19.9993V3.99935C14.6665 3.26297 15.2635 2.66602 15.9998 2.66602Z" fill="#FF7506"/>
</svg>
