<svg width="32" height="32" viewBox="0 0 32 32" fill="none" xmlns="http://www.w3.org/2000/svg">
<path d="M13.3332 26.668H6.6665C6.31288 26.668 5.97374 26.5275 5.7237 26.2774C5.47365 26.0274 5.33317 25.6883 5.33317 25.3346V6.66797C5.33317 6.31435 5.47365 5.97521 5.7237 5.72516C5.97374 5.47511 6.31288 5.33464 6.6665 5.33464H13.3332V9.33464C13.3332 10.3955 13.7546 11.4129 14.5047 12.1631C15.2549 12.9132 16.2723 13.3346 17.3332 13.3346H22.6665C22.9297 13.3333 23.1867 13.2541 23.405 13.107C23.6233 12.9599 23.7931 12.7515 23.8932 12.508C23.9953 12.2652 24.0232 11.9975 23.9733 11.7389C23.9235 11.4802 23.7982 11.2421 23.6132 11.0546L15.6132 3.05464C15.503 2.95092 15.3769 2.86541 15.2398 2.8013C15.2 2.79565 15.1596 2.79565 15.1198 2.8013L14.7465 2.66797H6.6665C5.60564 2.66797 4.58822 3.0894 3.83808 3.83954C3.08793 4.58969 2.6665 5.6071 2.6665 6.66797V25.3346C2.6665 26.3955 3.08793 27.4129 3.83808 28.1631C4.58822 28.9132 5.60564 29.3346 6.6665 29.3346H13.3332C13.6868 29.3346 14.0259 29.1942 14.276 28.9441C14.526 28.6941 14.6665 28.3549 14.6665 28.0013C14.6665 27.6477 14.526 27.3085 14.276 27.0585C14.0259 26.8084 13.6868 26.668 13.3332 26.668ZM15.9998 7.21464L19.4532 10.668H17.3332C16.9795 10.668 16.6404 10.5275 16.3904 10.2774C16.1403 10.0274 15.9998 9.68826 15.9998 9.33464V7.21464ZM17.3332 17.3346C17.3332 16.981 17.1927 16.6419 16.9426 16.3918C16.6926 16.1418 16.3535 16.0013 15.9998 16.0013H9.33317C8.97955 16.0013 8.64041 16.1418 8.39036 16.3918C8.14031 16.6419 7.99984 16.981 7.99984 17.3346C7.99984 17.6883 8.14031 18.0274 8.39036 18.2774C8.64041 18.5275 8.97955 18.668 9.33317 18.668H15.9998C16.3535 18.668 16.6926 18.5275 16.9426 18.2774C17.1927 18.0274 17.3332 17.6883 17.3332 17.3346ZM9.33317 13.3346H10.6665C11.0201 13.3346 11.3593 13.1942 11.6093 12.9441C11.8594 12.6941 11.9998 12.3549 11.9998 12.0013C11.9998 11.6477 11.8594 11.3085 11.6093 11.0585C11.3593 10.8084 11.0201 10.668 10.6665 10.668H9.33317C8.97955 10.668 8.64041 10.8084 8.39036 11.0585C8.14031 11.3085 7.99984 11.6477 7.99984 12.0013C7.99984 12.3549 8.14031 12.6941 8.39036 12.9441C8.64041 13.1942 8.97955 13.3346 9.33317 13.3346ZM9.33317 21.3346C8.97955 21.3346 8.64041 21.4751 8.39036 21.7252C8.14031 21.9752 7.99984 22.3143 7.99984 22.668C7.99984 23.0216 8.14031 23.3607 8.39036 23.6108C8.64041 23.8608 8.97955 24.0013 9.33317 24.0013H11.9998C12.3535 24.0013 12.6926 23.8608 12.9426 23.6108C13.1927 23.3607 13.3332 23.0216 13.3332 22.668C13.3332 22.3143 13.1927 21.9752 12.9426 21.7252C12.6926 21.4751 12.3535 21.3346 11.9998 21.3346H9.33317ZM26.6665 20.2413V20.0013C26.6665 18.9404 26.2451 17.923 25.4949 17.1729C24.7448 16.4227 23.7274 16.0013 22.6665 16.0013C21.6056 16.0013 20.5882 16.4227 19.8381 17.1729C19.0879 17.923 18.6665 18.9404 18.6665 20.0013V20.2413C17.8884 20.5164 17.2145 21.0254 16.7371 21.6986C16.2597 22.3717 16.0022 23.176 15.9998 24.0013V25.3346C15.9998 26.3955 16.4213 27.4129 17.1714 28.1631C17.9216 28.9132 18.939 29.3346 19.9998 29.3346H25.3332C26.394 29.3346 27.4115 28.9132 28.1616 28.1631C28.9117 27.4129 29.3332 26.3955 29.3332 25.3346V24.0013C29.3309 23.176 29.0733 22.3717 28.5959 21.6986C28.1185 21.0254 27.4446 20.5164 26.6665 20.2413ZM22.6665 18.668C23.0201 18.668 23.3593 18.8084 23.6093 19.0585C23.8594 19.3085 23.9998 19.6477 23.9998 20.0013H21.3332C21.3332 19.6477 21.4736 19.3085 21.7237 19.0585C21.9737 18.8084 22.3129 18.668 22.6665 18.668ZM26.6665 25.3346C26.6665 25.6883 26.526 26.0274 26.276 26.2774C26.0259 26.5275 25.6868 26.668 25.3332 26.668H19.9998C19.6462 26.668 19.3071 26.5275 19.057 26.2774C18.807 26.0274 18.6665 25.6883 18.6665 25.3346V24.0013C18.6665 23.6477 18.807 23.3085 19.057 23.0585C19.3071 22.8084 19.6462 22.668 19.9998 22.668H25.3332C25.6868 22.668 26.0259 22.8084 26.276 23.0585C26.526 23.3085 26.6665 23.6477 26.6665 24.0013V25.3346Z" fill="white"/>
</svg>
