<svg width="32" height="32" viewBox="0 0 32 32" fill="none" xmlns="http://www.w3.org/2000/svg">
<path fill-rule="evenodd" clip-rule="evenodd" d="M3.15466 13.1317C2.8421 13.4008 2.6665 13.7657 2.6665 14.1463V27.8998C2.6665 28.6923 3.4127 29.3346 4.33317 29.3346H27.6665C28.587 29.3346 29.3332 28.6923 29.3332 27.8998V14.1463C29.3332 13.7657 29.1576 13.4008 28.845 13.1317L17.1783 3.08821C16.5275 2.52789 15.4722 2.52789 14.8213 3.08821L3.15466 13.1317ZM26.6665 14.668L15.9998 5.33464L5.33317 14.668V26.668H13.3332V19.668C13.3332 19.1157 13.7809 18.668 14.3332 18.668H17.6665C18.2188 18.668 18.6665 19.1157 18.6665 19.668V26.668H26.6665V14.668Z" fill="white"/>
</svg>
