<svg width="151" height="103" viewBox="0 0 151 103" fill="none" xmlns="http://www.w3.org/2000/svg">
<g clip-path="url(#clip0_3723_47428)">
<path d="M14.016 97.1036C13.9578 96.7177 13.7612 96.39 13.4335 96.1279C13.1059 95.8657 12.7272 95.7347 12.3049 95.7347C11.8171 95.7347 11.402 95.8657 11.0744 96.1279C10.7467 96.39 10.5137 96.7176 10.3754 97.1108C10.237 97.504 10.1715 97.9409 10.1715 98.4215C10.1715 99.1569 10.3462 99.7758 10.6957 100.285C11.0452 100.795 11.5841 101.05 12.2976 101.05C12.8073 101.05 13.2151 100.89 13.5209 100.577C13.8267 100.264 14.0087 99.8341 14.0743 99.2952H15.7417C15.6543 100.285 15.2975 101.065 14.6786 101.633C14.0597 102.2 13.266 102.492 12.2976 102.492C11.118 102.492 10.186 102.106 9.48703 101.341C8.78802 100.569 8.4458 99.6011 8.4458 98.4288C8.4458 97.2346 8.7953 96.2444 9.48703 95.4653C10.1788 94.6789 11.118 94.293 12.2976 94.293C13.1859 94.293 13.9432 94.5405 14.5767 95.0429C15.2102 95.5454 15.5742 96.2371 15.6834 97.1108H14.016V97.1036Z" fill="#FF7506"/>
<path d="M24.2241 94.4688H25.9498V100.862H29.7725V102.311H24.2314V94.4688H24.2241Z" fill="#FF7506"/>
<path d="M38.0293 98.4209C38.0293 97.2268 38.3788 96.2366 39.0705 95.4575C39.7623 94.6711 40.7015 94.2852 41.8811 94.2852C43.0607 94.2852 43.9927 94.6783 44.6917 95.4575C45.3834 96.2438 45.7329 97.2268 45.7329 98.4209C45.7329 99.5932 45.3834 100.562 44.6917 101.333C43.9927 102.105 43.0607 102.484 41.8811 102.484C40.7015 102.484 39.7695 102.098 39.0705 101.333C38.3788 100.562 38.0293 99.5932 38.0293 98.4209ZM39.755 98.4209C39.755 99.1564 39.9297 99.7753 40.2792 100.285C40.6287 100.795 41.1676 101.05 41.8811 101.05C42.602 101.05 43.1335 100.795 43.483 100.285C43.8325 99.7753 44.0073 99.1564 44.0073 98.4209C44.0073 97.9404 43.9417 97.5035 43.8034 97.1103C43.665 96.7171 43.432 96.3895 43.1044 96.1273C42.7767 95.8652 42.3617 95.7341 41.8738 95.7341C41.386 95.7341 40.971 95.8652 40.6433 96.1273C40.3156 96.3895 40.0826 96.7171 39.9443 97.1103C39.8205 97.5035 39.755 97.9404 39.755 98.4209Z" fill="#FF7506"/>
<path d="M60.1139 99.3444C60.1139 100.386 59.8227 101.165 59.2402 101.696C58.6577 102.221 57.8349 102.49 56.7645 102.49C55.6869 102.49 54.8641 102.228 54.2889 101.711C53.7137 101.194 53.4297 100.407 53.4297 99.3517V94.4805H55.1554V99.3517C55.1554 99.8614 55.2646 100.276 55.4903 100.59C55.716 100.903 56.1383 101.056 56.7718 101.056C57.3689 101.056 57.7912 100.924 58.0315 100.655C58.2718 100.386 58.3956 99.956 58.3956 99.3517V94.4805H60.1212V99.3444H60.1139Z" fill="#FF7506"/>
<path d="M68.1958 94.4688H71.5743C72.6374 94.4688 73.4966 94.8037 74.1519 95.4663C74.8072 96.1289 75.1349 97.09 75.1349 98.3424C75.1349 99.5293 74.8291 100.483 74.2247 101.211C73.6204 101.939 72.7321 102.303 71.5816 102.303H68.2031V94.4688H68.1958ZM69.9142 100.862H71.4505C72.0039 100.862 72.4699 100.672 72.8413 100.294C73.2126 99.9152 73.4019 99.3181 73.4019 98.5172C73.4019 97.6725 73.2272 97.0318 72.8777 96.5876C72.5282 96.1434 71.953 95.925 71.1375 95.925H69.9069V100.862H69.9142Z" fill="#FF7506"/>
<path d="M85.7145 98.7495C85.6417 98.3927 85.4742 98.1233 85.2194 97.9339C84.9573 97.7446 84.6442 97.65 84.2728 97.65C83.6976 97.65 83.2607 97.8539 82.9695 98.2543C82.6782 98.6548 82.5326 99.1499 82.5326 99.7397C82.5326 100.373 82.6782 100.89 82.9695 101.291C83.2607 101.691 83.6976 101.895 84.2874 101.895C84.7243 101.895 85.0738 101.757 85.3359 101.48C85.598 101.203 85.7437 100.846 85.7728 100.41H86.4572C86.3917 101.065 86.166 101.567 85.7801 101.931C85.4014 102.288 84.8772 102.47 84.2291 102.47C83.4573 102.47 82.8675 102.223 82.4598 101.72C82.052 101.225 81.8481 100.577 81.8481 99.7907C81.8481 99.0043 82.0666 98.3563 82.4962 97.8466C82.9258 97.3369 83.5228 97.082 84.2874 97.082C84.8481 97.082 85.3213 97.2277 85.7145 97.5189C86.1077 97.8102 86.3407 98.2252 86.4135 98.7567H85.7145V98.7495Z" fill="#FF7506"/>
<path d="M94.5614 97.1992H95.3187L97.3283 102.347H96.5711L96.0104 100.796H93.8333L93.2581 102.347H92.5591L94.5614 97.1992ZM94.0518 100.221H95.7993L94.9401 97.8181H94.9255L94.0518 100.221Z" fill="#FF7506"/>
<path d="M103.175 97.1992H104.115L105.738 101.524L107.369 97.1992H108.309V102.347H107.661V98.0657H107.646L106.037 102.347H105.454L103.845 98.0657H103.831V102.347H103.183V97.1992H103.175Z" fill="#FF7506"/>
<path d="M114.621 97.1992H116.878C117.395 97.1992 117.781 97.3303 118.051 97.5924C118.32 97.8545 118.451 98.2332 118.451 98.721C118.451 99.2089 118.32 99.5802 118.051 99.8496C117.781 100.119 117.388 100.25 116.878 100.243H115.306V102.347H114.621V97.1992ZM115.306 99.6603H116.645C117.395 99.6676 117.774 99.3472 117.774 98.7137C117.774 98.0803 117.395 97.7672 116.645 97.7672H115.306V99.6603Z" fill="#FF7506"/>
<path d="M129.41 100.483C129.41 101.138 129.235 101.633 128.885 101.961C128.536 102.296 128.034 102.456 127.378 102.456C125.966 102.456 125.267 101.8 125.267 100.483V97.1914H125.951V100.483C125.951 100.941 126.075 101.291 126.322 101.531C126.57 101.771 126.919 101.888 127.385 101.888C127.822 101.888 128.157 101.771 128.383 101.531C128.609 101.291 128.725 100.941 128.725 100.483V97.1914H129.41V100.483Z" fill="#FF7506"/>
<path d="M139.342 98.7068C139.262 98.0078 138.84 97.651 138.068 97.651C137.733 97.651 137.464 97.7166 137.245 97.8549C137.027 97.9933 136.917 98.219 136.917 98.5321C136.917 98.7068 136.976 98.8452 137.099 98.9544C137.216 99.0636 137.376 99.151 137.573 99.2092C137.769 99.2675 137.981 99.3257 138.214 99.3694C138.447 99.4131 138.68 99.4714 138.92 99.5369C139.153 99.6024 139.371 99.6825 139.568 99.7845C139.764 99.8864 139.917 100.032 140.041 100.229C140.158 100.425 140.223 100.658 140.223 100.935C140.223 101.197 140.165 101.437 140.041 101.641C139.917 101.845 139.764 102.005 139.568 102.122C139.371 102.238 139.16 102.326 138.927 102.384C138.694 102.442 138.461 102.471 138.214 102.471C137.595 102.471 137.092 102.318 136.684 102.013C136.284 101.707 136.08 101.255 136.08 100.666H136.728C136.728 101.073 136.874 101.386 137.158 101.59C137.449 101.801 137.798 101.903 138.228 101.903C138.592 101.903 138.905 101.831 139.153 101.685C139.408 101.539 139.531 101.299 139.531 100.964C139.531 100.775 139.473 100.615 139.349 100.491C139.226 100.367 139.073 100.272 138.876 100.207C138.68 100.141 138.468 100.083 138.235 100.039C138.002 99.9883 137.769 99.9374 137.529 99.8791C137.296 99.8209 137.078 99.7408 136.881 99.6534C136.684 99.5587 136.532 99.4277 136.408 99.2529C136.284 99.0782 136.226 98.8597 136.226 98.6049C136.226 98.117 136.408 97.7384 136.772 97.4836C137.136 97.2287 137.58 97.0977 138.09 97.0977C138.65 97.0977 139.102 97.236 139.444 97.5054C139.786 97.7748 139.968 98.1826 139.99 98.7287H139.342V98.7068Z" fill="#FF7506"/>
<path d="M80.1235 49.7619C77.0945 50.9124 73.745 50.9124 70.716 49.7619L45.4716 40.1797C45.3115 41.4248 45.2168 42.6917 45.2168 43.9805C45.2168 60.6329 58.7674 74.1835 75.4198 74.1835C92.0721 74.1835 105.623 60.6329 105.623 43.9805C105.623 42.6917 105.528 41.4248 105.368 40.1797L80.1235 49.7619ZM92.4362 53.9924C92.4362 53.9924 92.5964 64.3683 75.4198 64.5357C58.2431 64.3683 58.4033 53.9924 58.4033 53.9924V47.1042L69.6092 51.4803C73.3446 52.9366 77.4876 52.9366 81.223 51.4803L92.4289 47.1042V53.9924H92.4362Z" fill="#FF7506"/>
<path d="M120.572 25.3317C118.613 25.3317 116.698 25.5211 114.848 25.8778C112.722 20.9775 109.679 16.4704 105.783 12.5821C97.6717 4.46345 86.8881 0 75.42 0C63.9519 0 53.1683 4.46345 45.0569 12.5749C41.1686 16.4631 38.1178 20.9702 35.9916 25.8706C34.1349 25.5138 32.2272 25.3245 30.2685 25.3245C13.5797 25.3317 0 38.9114 0 55.6002C0 71.7211 12.6695 84.944 28.5792 85.825H28.5865C29.1472 85.8541 29.7078 85.876 30.283 85.876C30.851 85.876 31.4189 85.8614 31.9796 85.825H73.4031C74.0802 85.8541 74.7574 85.876 75.4346 85.876C76.1117 85.876 76.7962 85.8614 77.466 85.825H118.89C119.45 85.8541 120.011 85.876 120.586 85.876C137.282 85.876 150.862 72.2963 150.862 55.6002C150.84 38.9114 137.26 25.3317 120.572 25.3317ZM75.42 6.96095C91.7811 6.96095 105.688 17.6354 110.56 32.3873L101.196 28.2516C95.8805 19.5722 86.3129 13.769 75.4127 13.769C64.5126 13.769 54.9449 19.5722 49.6295 28.2516L40.2657 32.3873C45.1515 17.6354 59.0589 6.96095 75.42 6.96095ZM75.42 80.9902C55.0104 80.9902 38.409 64.3888 38.409 43.9792C38.409 41.8458 38.5983 39.7561 38.9478 37.7173L38.9187 37.7027H38.9114H38.9187L44.6637 35.1615L44.6855 35.1688L44.7001 35.1615L70.0682 23.9556C73.4832 22.4483 77.3714 22.4483 80.7791 23.9556L106.147 35.1615L111.892 37.7027C112.242 39.7415 112.431 41.8385 112.431 43.9792C112.431 64.3888 95.8296 80.9902 75.42 80.9902Z" fill="#FF7506"/>
</g>
<defs>
<clipPath id="clip0_3723_47428">
<rect width="150.84" height="102.485" fill="white"/>
</clipPath>
</defs>
</svg>
