<svg width="6" height="22" viewBox="0 0 6 22" fill="none" xmlns="http://www.w3.org/2000/svg">
<path d="M3.00016 5.66732C4.46683 5.66732 5.66683 4.46732 5.66683 3.00065C5.66683 1.53398 4.46683 0.333984 3.00016 0.333984C1.5335 0.333984 0.333496 1.53398 0.333496 3.00065C0.333496 4.46732 1.5335 5.66732 3.00016 5.66732Z" fill="#FF7506"/>
<path d="M3.00016 8.33398C1.5335 8.33398 0.333496 9.53398 0.333496 11.0007C0.333496 12.4673 1.5335 13.6673 3.00016 13.6673C4.46683 13.6673 5.66683 12.4673 5.66683 11.0007C5.66683 9.53398 4.46683 8.33398 3.00016 8.33398Z" fill="#FF7506"/>
<path d="M0.333496 19.0007C0.333496 17.534 1.5335 16.334 3.00016 16.334C4.46683 16.334 5.66683 17.534 5.66683 19.0007C5.66683 20.4673 4.46683 21.6673 3.00016 21.6673C1.5335 21.6673 0.333496 20.4673 0.333496 19.0007Z" fill="#FF7506"/>
</svg>
