<svg width="32" height="32" viewBox="0 0 32 32" fill="none" xmlns="http://www.w3.org/2000/svg">
<path d="M21.5863 6.69604C21.9265 6.87902 22.3294 6.92711 22.7069 6.82982C23.0844 6.73254 23.406 6.49777 23.6015 6.17674C23.7633 5.90636 24.0152 5.69448 24.3178 5.57433C24.6203 5.45417 24.9565 5.43253 25.2734 5.5128C25.5904 5.59308 25.8703 5.77072 26.0692 6.01788C26.2681 6.26504 26.3747 6.56773 26.3724 6.87849C26.3724 7.25073 26.2163 7.60772 25.9384 7.87092C25.6606 8.13413 25.2837 8.282 24.8907 8.282C24.4977 8.282 24.1208 8.42987 23.8429 8.69308C23.565 8.95629 23.4089 9.31328 23.4089 9.68551C23.4089 10.0577 23.565 10.4147 23.8429 10.6779C24.1208 10.9412 24.4977 11.089 24.8907 11.089C25.6709 11.0885 26.4372 10.8936 27.1126 10.5237C27.7881 10.1539 28.3489 9.62216 28.7387 8.982C29.1285 8.34185 29.3335 7.61579 29.3332 6.87681C29.3329 6.13782 29.1272 5.41193 28.7369 4.77206C28.3466 4.1322 27.7853 3.60091 27.1096 3.23157C26.4338 2.86223 25.6673 2.66785 24.8871 2.66797C24.1069 2.66809 23.3405 2.8627 22.6648 3.23224C21.9892 3.60179 21.4281 4.13325 21.038 4.77323C20.94 4.93342 20.8765 5.11038 20.851 5.29393C20.8256 5.47748 20.8387 5.66399 20.8896 5.84271C20.9406 6.02143 21.0284 6.18884 21.1479 6.33529C21.2675 6.48174 21.4165 6.60435 21.5863 6.69604ZM27.958 16.7031C27.569 16.6552 27.1759 16.7554 26.8648 16.9817C26.5537 17.208 26.35 17.5418 26.2984 17.9101C25.9874 20.2892 24.7687 22.4786 22.8719 24.0659C20.9751 25.6531 18.531 26.5287 15.9999 26.5276H7.71672L8.67988 25.6153C8.95587 25.3524 9.11078 24.9967 9.11078 24.6259C9.11078 24.2551 8.95587 23.8994 8.67988 23.6364C7.23506 22.2625 6.2518 20.5144 5.85395 18.6122C5.4561 16.71 5.66146 14.7389 6.44416 12.947C7.22685 11.1552 8.55188 9.6228 10.2523 8.5429C11.9528 7.463 13.9526 6.88388 15.9999 6.87849C16.3929 6.87849 16.7698 6.73062 17.0477 6.46742C17.3256 6.20421 17.4817 5.84722 17.4817 5.47499C17.4817 5.10275 17.3256 4.74576 17.0477 4.48256C16.7698 4.21935 16.3929 4.07148 15.9999 4.07148C13.4946 4.08138 11.0428 4.75953 8.92556 6.02824C6.8083 7.29695 5.11119 9.10491 4.02864 11.245C2.94609 13.3851 2.5219 15.7707 2.80465 18.1285C3.08741 20.4864 4.06568 22.7212 5.6274 24.5767L3.09354 26.9346C2.88793 27.132 2.74864 27.3826 2.69326 27.6549C2.63788 27.9272 2.66888 28.2089 2.78236 28.4645C2.89352 28.7208 3.0823 28.9402 3.3249 29.095C3.5675 29.2499 3.85306 29.3333 4.14561 29.3346H15.9999C19.2472 29.3351 22.3831 28.2132 24.8193 26.1796C27.2555 24.146 28.8246 21.3404 29.2323 18.289C29.2594 18.1055 29.2479 17.9188 29.1984 17.7395C29.1489 17.5602 29.0624 17.392 28.9439 17.2446C28.8255 17.0972 28.6773 16.9734 28.5081 16.8804C28.3389 16.7875 28.1519 16.7272 27.958 16.7031ZM25.4537 12.5908C25.184 12.4777 24.8847 12.4435 24.5943 12.4925L24.3276 12.5767L24.0609 12.7031L23.8386 12.8855C23.7053 13.0148 23.5996 13.1673 23.5274 13.3346C23.4398 13.5097 23.3991 13.7025 23.4089 13.896C23.4046 14.0832 23.4398 14.2693 23.5126 14.4434C23.5892 14.6119 23.7 14.7644 23.8386 14.8925C23.977 15.0226 24.1412 15.1255 24.3218 15.1954C24.5023 15.2652 24.6956 15.3006 24.8907 15.2995C25.2837 15.2995 25.6606 15.1517 25.9384 14.8885C26.2163 14.6253 26.3724 14.2683 26.3724 13.896C26.3775 13.7119 26.3369 13.5293 26.2539 13.3627C26.0947 13.0255 25.8098 12.7556 25.4537 12.6048V12.5908Z" fill="white"/>
</svg>
