<svg width="32" height="32" viewBox="0 0 32 32" fill="none" xmlns="http://www.w3.org/2000/svg">
<path fill-rule="evenodd" clip-rule="evenodd" d="M16 14C14.8954 14 14 14.8954 14 16C14 17.1046 14.8954 18 16 18C17.1046 18 18 17.1046 18 16C18 14.8954 17.1046 14 16 14ZM12 16C12 13.7909 13.7909 12 16 12C18.2091 12 20 13.7909 20 16C20 18.2091 18.2091 20 16 20C13.7909 20 12 18.2091 12 16Z" fill="white"/>
<path fill-rule="evenodd" clip-rule="evenodd" d="M15.9998 4.89019C15.7052 4.89019 15.4225 5.00725 15.2142 5.21563C15.0058 5.424 14.8887 5.70662 14.8887 6.0013V6.19462C14.8864 6.76886 14.7163 7.32989 14.3992 7.80865C14.0821 8.28742 13.632 8.66303 13.1042 8.88924C13.0103 8.9295 12.9114 8.95652 12.8105 8.96971C12.3309 9.13765 11.8146 9.17905 11.3121 9.08793C10.7332 8.98296 10.199 8.70699 9.77843 8.29559L9.76967 8.28702L9.70305 8.22031C9.59986 8.117 9.47688 8.03461 9.34199 7.9787C9.20711 7.92278 9.06252 7.894 8.9165 7.894C8.77049 7.894 8.6259 7.92278 8.49101 7.9787C8.35613 8.03461 8.23359 8.11657 8.13039 8.21987L8.12952 8.22075C8.02621 8.32394 7.94426 8.44648 7.88834 8.58137C7.83243 8.71626 7.80364 8.86084 7.80364 9.00686C7.80364 9.15287 7.83243 9.29746 7.88834 9.43235C7.94426 9.56723 8.02621 9.68978 8.12952 9.79297L8.20529 9.86874C8.61668 10.2893 8.89261 10.8235 8.99757 11.4024C9.10045 11.9698 9.03443 12.5546 8.80812 13.0844C8.60194 13.625 8.24092 14.0932 7.76989 14.4301C7.28933 14.7738 6.71648 14.965 6.12582 14.9788L6.09984 14.9791H5.99984C5.70515 14.9791 5.42254 15.0961 5.21416 15.3045C5.00579 15.5129 4.88873 15.7955 4.88873 16.0902C4.88873 16.3849 5.00579 16.6675 5.21416 16.8759C5.42254 17.0842 5.70515 17.2013 5.99984 17.2013H6.19316C6.76739 17.2036 7.32842 17.3738 7.80719 17.6908C8.28429 18.0068 8.65895 18.4549 8.88541 18.9803C9.12104 19.5171 9.19107 20.1121 9.08646 20.6891C8.9815 21.268 8.70552 21.8021 8.29413 22.2227L8.28556 22.2315L8.21884 22.2981C8.11554 22.4013 8.03315 22.5243 7.97723 22.6591C7.92131 22.794 7.89253 22.9386 7.89253 23.0846C7.89253 23.2307 7.92131 23.3752 7.97723 23.5101C8.03315 23.645 8.1151 23.7676 8.21841 23.8707L8.21928 23.8716C8.32247 23.9749 8.44501 24.0569 8.5799 24.1128C8.71479 24.1687 8.85938 24.1975 9.00539 24.1975C9.15141 24.1975 9.29599 24.1687 9.43088 24.1128C9.56577 24.0569 9.68831 23.9749 9.7915 23.8716L9.86727 23.7959C10.2878 23.3845 10.8221 23.1085 11.401 23.0036C11.9683 22.9007 12.5531 22.9667 13.0829 23.193C13.6235 23.3992 14.0917 23.7602 14.4286 24.2313C14.7723 24.7118 14.9635 25.2847 14.9773 25.8753L14.9776 25.9013V26.0013C14.9776 26.296 15.0947 26.5786 15.3031 26.787C15.5114 26.9954 15.794 27.1124 16.0887 27.1124C16.3834 27.1124 16.666 26.9954 16.8744 26.787C17.0828 26.5786 17.1998 26.296 17.1998 26.0013V25.8124L17.1998 25.808C17.2021 25.2337 17.3723 24.6727 17.6894 24.194C18.0053 23.7168 18.4535 23.3421 18.979 23.1157C19.5158 22.8801 20.1107 22.8101 20.6876 22.9147C21.2665 23.0196 21.8007 23.2956 22.2212 23.707L22.23 23.7156L22.2966 23.7823C22.3998 23.8856 22.5228 23.968 22.6577 24.0239C22.7926 24.0798 22.9372 24.1086 23.0832 24.1086C23.2292 24.1086 23.3738 24.0798 23.5087 24.0239C23.6435 23.968 23.7661 23.886 23.8693 23.7827L23.8702 23.7819C23.9735 23.6787 24.0554 23.5561 24.1113 23.4212C24.1673 23.2863 24.196 23.1418 24.196 22.9957C24.196 22.8497 24.1673 22.7051 24.1113 22.5703C24.0554 22.4354 23.9735 22.3128 23.8702 22.2096L23.7944 22.1339C23.383 21.7133 23.1071 21.1791 23.0021 20.6002C22.8975 20.0233 22.9675 19.4284 23.2031 18.8916C23.4296 18.3661 23.8042 17.9179 24.2814 17.6019C24.7601 17.2849 25.3212 17.1147 25.8954 17.1124L25.8998 17.1124L25.9998 17.1124C26.2945 17.1124 26.5771 16.9953 26.7855 16.787C26.9939 16.5786 27.111 16.296 27.111 16.0013C27.111 15.7066 26.9939 15.424 26.7855 15.2156C26.5771 15.0073 26.2945 14.8902 25.9998 14.8902H25.8109L25.8065 14.8902C25.2323 14.8879 24.6713 14.7177 24.1925 14.4007C23.7137 14.0836 23.3381 13.6335 23.1119 13.1057C23.0716 13.0117 23.0446 12.9129 23.0314 12.812C22.8635 12.3324 22.8221 11.8161 22.9132 11.3135C23.0182 10.7346 23.2941 10.2005 23.7055 9.7799L23.7141 9.77114L23.7808 9.70452C23.8841 9.60133 23.9665 9.47834 24.0224 9.34346C24.0784 9.20857 24.1071 9.06398 24.1071 8.91797C24.1071 8.77195 24.0784 8.62737 24.0224 8.49248C23.9665 8.35759 23.8846 8.23505 23.7813 8.13186L23.7804 8.13098C23.6772 8.02768 23.5547 7.94572 23.4198 7.88981C23.2849 7.83389 23.1403 7.80511 22.9943 7.80511C22.8483 7.80511 22.7037 7.83389 22.5688 7.88981C22.4339 7.94572 22.3114 8.02768 22.2082 8.13098L22.1324 8.20675C21.7118 8.61815 21.1776 8.89407 20.5987 8.99904C20.0218 9.10365 19.4268 9.03361 18.89 8.79798C18.3645 8.57153 17.9164 8.19687 17.6005 7.71976C17.2834 7.241 17.1132 6.67997 17.111 6.10573L17.1109 6.1013V6.0013C17.1109 5.70662 16.9939 5.424 16.7855 5.21563C16.5771 5.00725 16.2945 4.89019 15.9998 4.89019ZM24.2221 19.3346L25.2386 19.7833C25.1803 19.9153 25.1629 20.0617 25.1887 20.2037C25.2141 20.3442 25.2806 20.4739 25.3797 20.5765L25.4406 20.6374C25.4408 20.6376 25.4405 20.6373 25.4406 20.6374C25.7504 20.9469 25.9965 21.3148 26.1642 21.7193C26.3319 22.1239 26.4183 22.5577 26.4183 22.9957C26.4183 23.4338 26.3319 23.8676 26.1642 24.2722C25.9964 24.6769 25.7506 25.0445 25.4406 25.3541L24.6554 24.568L25.4415 25.3532C25.1319 25.6631 24.7643 25.909 24.3596 26.0767C23.955 26.2445 23.5212 26.3308 23.0832 26.3308C22.6451 26.3308 22.2114 26.2445 21.8067 26.0767C21.4022 25.9091 21.0348 25.6634 20.7253 25.3536C20.7251 25.3535 20.7254 25.3538 20.7253 25.3536L20.6639 25.2923C20.5613 25.1932 20.4316 25.1267 20.2911 25.1012C20.1492 25.0755 20.0027 25.0929 19.8707 25.1511L19.8598 25.156C19.7303 25.2114 19.6199 25.3035 19.5421 25.421C19.4647 25.5379 19.4229 25.6749 19.4221 25.8152V26.0013C19.4221 26.8854 19.0709 27.7332 18.4457 28.3583C17.8206 28.9834 16.9728 29.3346 16.0887 29.3346C15.2047 29.3346 14.3568 28.9834 13.7317 28.3583C13.1066 27.7332 12.7554 26.8854 12.7554 26.0013V25.9173C12.7501 25.7759 12.7035 25.6392 12.6211 25.524C12.5368 25.4062 12.419 25.3164 12.283 25.2663C12.261 25.2583 12.2393 25.2495 12.2179 25.24C12.0859 25.1818 11.9394 25.1644 11.7974 25.1901C11.657 25.2156 11.5272 25.2821 11.4246 25.3812L11.3637 25.4421C11.3636 25.4422 11.3639 25.442 11.3637 25.4421C11.0542 25.7518 10.6863 25.998 10.2819 26.1656C9.8772 26.3334 9.44345 26.4197 9.00539 26.4197C8.56734 26.4197 8.13358 26.3334 7.72893 26.1656C7.32465 25.998 6.95733 25.7525 6.64793 25.443C6.33801 25.1334 6.09215 24.7658 5.9244 24.3611C5.75665 23.9564 5.67031 23.5227 5.67031 23.0846C5.67031 22.6466 5.75665 22.2128 5.9244 21.8082C6.09215 21.4035 6.33801 21.0359 6.64793 20.7263L6.70885 20.6654C6.80793 20.5628 6.87443 20.4331 6.89989 20.2926C6.92564 20.1506 6.90826 20.0042 6.84999 19.8722L6.84518 19.8613C6.78969 19.7318 6.69762 19.6214 6.58019 19.5436C6.46321 19.4661 6.32622 19.4244 6.18595 19.4235H5.99984C5.11578 19.4235 4.26794 19.0723 3.64281 18.4472C3.01769 17.8221 2.6665 16.9742 2.6665 16.0902C2.6665 15.2061 3.01769 14.3583 3.64281 13.7332C4.26794 13.108 5.11578 12.7569 5.99984 12.7569H6.08388C6.22521 12.7516 6.36196 12.7049 6.47712 12.6226C6.59499 12.5383 6.68477 12.4204 6.7348 12.2844C6.74288 12.2625 6.75165 12.2408 6.7611 12.2193C6.81937 12.0873 6.83675 11.9409 6.811 11.7989C6.78554 11.6584 6.71904 11.5287 6.61995 11.4261L6.55904 11.3652C6.24912 11.0556 6.00326 10.688 5.83551 10.2833C5.66776 9.87867 5.58142 9.44491 5.58142 9.00686C5.58142 8.56881 5.66776 8.13505 5.83551 7.73039C6.00318 7.32592 6.24889 6.95845 6.55861 6.64896C6.86809 6.33925 7.23557 6.09353 7.64004 5.92587C8.0447 5.75812 8.47845 5.67178 8.9165 5.67178C9.35456 5.67178 9.78831 5.75812 10.193 5.92587C10.5976 6.09361 10.9653 6.33948 11.2748 6.6494L11.3357 6.7103C11.4384 6.80939 11.5681 6.87589 11.7085 6.90136C11.8505 6.9271 11.997 6.90972 12.129 6.85145C12.2001 6.82005 12.2742 6.79629 12.3499 6.78044C12.4274 6.72785 12.4943 6.66045 12.5464 6.58165C12.6239 6.46468 12.6656 6.32768 12.6665 6.18741V6.0013C12.6665 5.11725 13.0177 4.2694 13.6428 3.64428C14.2679 3.01916 15.1158 2.66797 15.9998 2.66797C16.8839 2.66797 17.7317 3.01916 18.3569 3.64428C18.982 4.2694 19.3332 5.11725 19.3332 6.0013V6.09852C19.3341 6.2388 19.3758 6.37579 19.4532 6.49276C19.531 6.6102 19.6414 6.70233 19.7709 6.75781L19.7818 6.76251C19.9138 6.82077 20.0603 6.83821 20.2023 6.81247C20.3427 6.787 20.4724 6.72051 20.575 6.62142L20.6359 6.56051C20.9455 6.25059 21.3132 6.00472 21.7178 5.83698C22.1225 5.66923 22.5562 5.58289 22.9943 5.58289C23.4323 5.58289 23.8661 5.66923 24.2708 5.83698C24.6754 6.00473 25.043 6.25059 25.3526 6.56051C25.6621 6.8699 25.9077 7.23722 26.0753 7.6415C26.243 8.04616 26.3294 8.47992 26.3294 8.91797C26.3294 9.35602 26.243 9.78978 26.0753 10.1944C25.9076 10.5989 25.6619 10.9664 25.3522 11.2759C25.352 11.276 25.3523 11.2757 25.3522 11.2759L25.2908 11.3372C25.1918 11.4398 25.1253 11.5695 25.0998 11.71C25.074 11.852 25.0914 11.9984 25.1497 12.1305C25.1811 12.2016 25.2048 12.2757 25.2207 12.3514C25.2733 12.4288 25.3407 12.4957 25.4195 12.5479C25.5365 12.6254 25.6735 12.6671 25.8137 12.668H25.9998C26.8839 12.668 27.7317 13.0192 28.3569 13.6443C28.982 14.2694 29.3332 15.1172 29.3332 16.0013C29.3332 16.8854 28.982 17.7332 28.3569 18.3583C27.7317 18.9834 26.8839 19.3346 25.9998 19.3346H25.9026C25.7623 19.3355 25.6254 19.3772 25.5084 19.4547C25.3909 19.5325 25.2988 19.6429 25.2433 19.7723L24.2221 19.3346Z" fill="white"/>
</svg>
