<svg width="34" height="34" viewBox="0 0 34 34" fill="none" xmlns="http://www.w3.org/2000/svg">
<path fill-rule="evenodd" clip-rule="evenodd" d="M17.0002 20.332C20.6821 20.332 23.6668 17.3473 23.6668 13.6654C23.6668 9.98347 20.6821 6.9987 17.0002 6.9987C13.3183 6.9987 10.3335 9.98347 10.3335 13.6654C10.3335 17.3473 13.3183 20.332 17.0002 20.332ZM17.0002 16.9987C18.8411 16.9987 20.3335 15.5063 20.3335 13.6654C20.3335 11.8244 18.8411 10.332 17.0002 10.332C15.1592 10.332 13.6668 11.8244 13.6668 13.6654C13.6668 15.5063 15.1592 16.9987 17.0002 16.9987Z" fill="#FF7506"/>
<path fill-rule="evenodd" clip-rule="evenodd" d="M26.877 30.4249C30.9951 27.3903 33.6668 22.5065 33.6668 16.9987C33.6668 7.79395 26.2049 0.332031 17.0002 0.332031C7.79542 0.332031 0.333496 7.79395 0.333496 16.9987C0.333496 22.5065 3.00519 27.3903 7.1233 30.4249C7.19906 30.4807 7.27531 30.5359 7.35204 30.5905C8.10012 31.1224 8.894 31.5942 9.72662 31.9987C11.9246 33.0665 14.3924 33.6654 17.0002 33.6654C19.6079 33.6654 22.0758 33.0665 24.2737 31.9987C24.3184 31.977 24.3629 31.9551 24.4074 31.933C25.2764 31.5012 26.1023 30.9958 26.877 30.4249ZM25.7147 27.0903C28.5435 24.6454 30.3335 21.0311 30.3335 16.9987C30.3335 9.6349 24.364 3.66536 17.0002 3.66536C9.63637 3.66536 3.66683 9.6349 3.66683 16.9987C3.66683 21.0311 5.45685 24.6454 8.28564 27.0903C10.0013 24.0509 13.2611 21.9987 17.0002 21.9987C20.7393 21.9987 23.9991 24.0509 25.7147 27.0903ZM22.928 28.9451C21.8203 26.7992 19.5816 25.332 17.0002 25.332C14.4188 25.332 12.18 26.7992 11.0724 28.9451C12.858 29.8329 14.8708 30.332 17.0002 30.332C19.1296 30.332 21.1424 29.8329 22.928 28.9451Z" fill="#FF7506"/>
</svg>
